<svg viewBox="0 0 16 16" xmlns="http://www.w3.org/2000/svg">
  <defs></defs>
  <path fill="#FFF" d="M1 1h14v14H1z"></path>
  <path fill="#999" d="M14 2v12H2V2h12m1-1H1v14h14V1z"></path>
  <path fill="#B9B9B9" d="M3 3h8v1H3zM3 5h8v1H3zM3 7h10v4H3z"></path>
  <path fill="#59F" d="M3 12h4v1H3z"></path>
  <g fill="currentColor" transform="matrix(0.591134, 0, 0, 0.591134, 6.907535, 4.154791)" style="">
    <path d="M 9.367 3.859 L 1.367 11.859 C 1.179 12.047 1.074 12.301 1.074 12.566 L 1.074 15.566 L 4.074 15.566 C 4.339 15.566 4.594 15.461 4.781 15.273 L 12.781 7.273 L 9.367 3.859 L 9.367 3.859 Z M 9.073 5.566 L 9.573 6.066 L 4.573 11.066 L 4.073 10.566 L 9.073 5.566 Z M 4.074 14.566 L 3.074 14.566 L 3.074 13.566 L 2.074 13.566 L 2.074 12.566 L 3.074 11.566 L 5.074 13.566 L 4.074 14.566 Z M 13.781 6.273 L 15.135 4.919 C 15.33 4.724 15.33 4.408 15.135 4.212 L 12.428 1.505 C 12.233 1.31 11.916 1.31 11.721 1.505 L 10.367 2.859 L 13.781 6.273 L 13.781 6.273 Z" style="fill: rgb(180, 2, 2);"></path>
  </g>
</svg>
